<?xml version="1.0" encoding="UTF-8"?>
<svg version="1.1" xmlns="http://www.w3.org/2000/svg" width="512" height="512">
<path d="M0 0 C0.73863281 0.04382813 1.47726562 0.08765625 2.23828125 0.1328125 C7.21969162 1.64233079 10.13563545 4.98218982 12.78436279 9.26731873 C13.43674253 10.57009799 14.07395684 11.88054857 14.69824219 13.19702148 C15.0536911 13.91653488 15.40914001 14.63604828 15.77536011 15.37736511 C16.54110237 16.9320295 17.30034126 18.48991084 18.05367279 20.05062675 C19.2535034 22.53571245 20.47077841 25.01155817 21.69268799 27.4858551 C24.29013548 32.75370977 26.86490042 38.03247689 29.4375 43.3125 C32.40849169 49.40665204 35.38904339 55.4958456 38.38944244 61.57557869 C39.57502131 63.98867125 40.74525603 66.40877046 41.91473389 68.82969666 C56.17778527 97.99992781 77.37574982 116.13976222 106.24327087 130.20450211 C108.59324602 131.35054696 110.93832209 132.50611697 113.28234863 133.66427612 C119.93576981 136.95018899 126.59557151 140.22293555 133.26269531 143.48095703 C137.3685347 145.48817888 141.46737706 147.50911873 145.56221008 149.53869247 C147.11287695 150.3038383 148.66614865 151.06372974 150.22209167 151.81808853 C152.39359925 152.87123804 154.55578755 153.94162286 156.71679688 155.01611328 C157.35165009 155.31859985 157.9865033 155.62108643 158.64059448 155.93273926 C163.65160089 158.4605474 167.61598215 161.78408313 169.5 167.21875 C169.9412035 172.2925902 169.71400674 175.53700701 166.6875 179.875 C162.98147494 183.18190345 158.98900354 185.41574988 154.54907227 187.56689453 C153.49906288 188.08499947 153.49906288 188.08499947 152.42784119 188.61357117 C150.91393535 189.35983462 149.39869378 190.10339324 147.88226509 190.84451675 C145.46772896 192.02550743 143.05767298 193.21521447 140.64866638 194.40744019 C133.80041774 197.79508081 126.94572706 201.16951247 120.08520508 204.53222656 C115.87904673 206.59465984 111.67912015 208.66936468 107.4825573 210.75124741 C105.8971456 211.53476 104.30948459 212.3137409 102.71939278 213.08771133 C81.06936101 223.62860836 61.25264424 237.74344664 49.38549805 259.26098633 C48.99935428 259.95490132 48.61321051 260.64881632 48.21536541 261.36375904 C44.47767528 268.14345863 41.01785641 275.05111118 37.62265968 282.00717735 C36.54641781 284.20959808 35.46267841 286.40818888 34.37687683 288.60591125 C31.29751681 294.83983832 28.22467502 301.07687234 25.17211914 307.32397461 C23.287043 311.18046443 21.38824668 315.02992932 19.48050499 318.87525368 C18.76291612 320.32828408 18.0504623 321.78386303 17.34345436 323.24207115 C16.35753674 325.27441467 15.35433326 327.29733475 14.34692383 329.3190918 C13.78338699 330.46774216 13.21985016 331.61639252 12.63923645 332.79985046 C10.04776756 336.88296033 7.03123826 340.06250407 2.34375 341.6875 C-2.7300902 342.1287035 -5.97450701 341.90150674 -10.3125 338.875 C-13.56457316 335.22031888 -15.79064886 331.308973 -17.91259766 326.93603516 C-18.41607224 325.91769592 -18.41607224 325.91769592 -18.92971802 324.87878418 C-19.6547247 323.41073056 -20.3770026 321.94132678 -21.09682083 320.4707222 C-22.24448902 318.12746087 -23.40053828 315.78850829 -24.55892944 313.45053101 C-27.8502208 306.80411161 -31.12708145 300.15062349 -34.39697266 293.49365234 C-36.40281688 289.41156585 -38.41896475 285.33469411 -40.44092941 281.26057053 C-41.20140206 279.72308622 -41.95804148 278.18369859 -42.71040726 276.64223099 C-54.22315114 253.05779578 -68.4326876 233.614573 -91.71411133 220.60229492 C-92.75733284 220.01788651 -92.75733284 220.01788651 -93.82162952 219.42167187 C-100.46906952 215.73197941 -107.24214397 212.32742206 -114.07428551 208.99535561 C-116.20950666 207.95273933 -118.34087841 206.90259219 -120.47138977 205.85038757 C-126.51414906 202.86658882 -132.56003222 199.88935297 -138.6159668 196.93237305 C-142.35575046 195.10565816 -146.08849926 193.26521361 -149.81711769 191.41582298 C-151.22549063 190.72055984 -152.63641107 190.03043071 -154.049963 189.34575844 C-156.0200507 188.39098133 -157.98068548 187.41890872 -159.94018555 186.44262695 C-161.05330612 185.89685501 -162.1664267 185.35108307 -163.3132782 184.78877258 C-167.35262173 182.21130902 -170.51627877 179.171792 -172.125 174.53125 C-172.5662035 169.4574098 -172.33900674 166.21299299 -169.3125 161.875 C-165.65781888 158.62292684 -161.746473 156.39685114 -157.37353516 154.27490234 C-156.69464233 153.93925262 -156.01574951 153.60360291 -155.31628418 153.25778198 C-153.84823056 152.5327753 -152.37882678 151.8104974 -150.9082222 151.09067917 C-148.56496087 149.94301098 -146.22600829 148.78696172 -143.88803101 147.62857056 C-137.24161161 144.3372792 -130.58812349 141.06041855 -123.93115234 137.79052734 C-119.84906585 135.78468312 -115.77219411 133.76853525 -111.69807053 131.74657059 C-110.16058622 130.98609794 -108.62119859 130.22945852 -107.07973099 129.47709274 C-83.49529578 117.96434886 -64.052073 103.7548124 -51.03979492 80.47338867 C-50.45538651 79.43016716 -50.45538651 79.43016716 -49.85917187 78.36587048 C-46.16947941 71.71843048 -42.76492206 64.94535603 -39.43285561 58.11321449 C-38.39023933 55.97799334 -37.34009219 53.84662159 -36.28788757 51.71611023 C-33.30408882 45.67335094 -30.32685297 39.62746778 -27.36987305 33.5715332 C-25.54315816 29.83174954 -23.70271361 26.09900074 -21.85332298 22.37038231 C-21.15805984 20.96200937 -20.46793071 19.55108893 -19.78325844 18.137537 C-18.82848133 16.1674493 -17.85640872 14.20681452 -16.88012695 12.24731445 C-16.33435501 11.13419388 -15.78858307 10.0210733 -15.22627258 8.8742218 C-11.58026159 3.16027451 -7.04589516 -0.55977751 0 0 Z " fill="#4D3ED7" transform="translate(330.3125,85.125)"/>
<path d="M0 0 C4.75233262 1.75525853 5.77636032 5.09941215 7.859375 9.5234375 C8.72367733 11.2553486 9.58826926 12.98711519 10.453125 14.71875 C10.89011719 15.61368164 11.32710938 16.50861328 11.77734375 17.43066406 C13.91132236 21.78466881 16.12806111 26.09372596 18.359375 30.3984375 C18.74706055 31.17106934 19.13474609 31.94370117 19.53417969 32.73974609 C27.44353301 48.07960535 41.51231353 54.07379354 56.44897461 61.24975586 C58.29621384 62.14013803 60.1384255 63.04033555 61.98046875 63.94140625 C63.06255615 64.4624292 64.14464355 64.98345215 65.25952148 65.52026367 C68.09249888 67.13879586 70.02845727 68.64561654 72.109375 71.1484375 C72.671875 74.1484375 72.671875 74.1484375 72.109375 77.1484375 C68.495702 80.5458898 64.42188208 82.63848779 59.97265625 84.72265625 C58.57587911 85.39718054 57.17940441 86.07233141 55.78320312 86.74804688 C53.61244272 87.79039223 51.43966124 88.82756384 49.26098633 89.85327148 C36.00706307 96.11538387 25.96245924 102.70109596 19.109375 116.1484375 C18.5417041 117.25944824 17.9740332 118.37045898 17.38916016 119.51513672 C15.21393749 123.8260672 13.09805646 128.16565294 10.98754883 132.50854492 C10.08147077 134.36893966 9.16806636 136.22559781 8.25390625 138.08203125 C7.45496948 139.7225647 7.45496948 139.7225647 6.63989258 141.39624023 C5.29346753 143.81739984 4.28648478 145.46744139 2.109375 147.1484375 C-0.828125 147.5859375 -0.828125 147.5859375 -3.890625 147.1484375 C-7.63505963 144.12480189 -9.49389035 140.38183738 -11.5 136.109375 C-12.17947566 134.70953257 -12.8591704 133.30979647 -13.5390625 131.91015625 C-14.58740903 129.72715746 -15.63165083 127.54232579 -16.67089844 125.35498047 C-26.84715454 104.01782576 -39.72744719 95.42503881 -60.52661133 85.39892578 C-62.52758949 84.43149799 -64.5236647 83.45448141 -66.51953125 82.4765625 C-67.69588135 81.9084082 -68.87223145 81.34025391 -70.08422852 80.75488281 C-72.890625 79.1484375 -72.890625 79.1484375 -74.890625 76.1484375 C-75.015625 73.2734375 -75.015625 73.2734375 -73.890625 70.1484375 C-66.33541047 64.82811876 -57.84900936 61.11093568 -49.53320312 57.140625 C-34.70609153 49.89526506 -26.29421554 41.67331061 -18.953125 27.0234375 C-17.90402306 24.97506717 -16.85454589 22.92688898 -15.8046875 20.87890625 C-15.05493652 19.40429932 -15.05493652 19.40429932 -14.29003906 17.89990234 C-12.49255514 14.36577048 -10.67481694 10.84465219 -8.828125 7.3359375 C-8.32152344 6.36011719 -7.81492187 5.38429688 -7.29296875 4.37890625 C-5.29986138 1.20881069 -3.74628514 0.1923768 0 0 Z " fill="#29A9E1" transform="translate(86.890625,11.8515625)"/>
<path d="M0 0 C4.04093247 0.75767484 4.66789932 2.22809103 7 5.5625 C8.25919826 7.92977891 9.43883448 10.27543147 10.57421875 12.69921875 C11.24874304 14.09599589 11.92389391 15.49247059 12.59960938 16.88867188 C13.64195473 19.05943228 14.67912634 21.23221376 15.70483398 23.41088867 C21.96694637 36.66481193 28.55265846 46.70941576 42 53.5625 C43.11101074 54.1301709 44.22202148 54.6978418 45.36669922 55.28271484 C49.6776297 57.45793751 54.01721544 59.57381854 58.36010742 61.68432617 C60.22050216 62.59040423 62.07716031 63.50380864 63.93359375 64.41796875 C65.5741272 65.21690552 65.5741272 65.21690552 67.24780273 66.03198242 C69.66896234 67.37840747 71.31900389 68.38539022 73 70.5625 C73.4375 73.5 73.4375 73.5 73 76.5625 C69.97636439 80.30693463 66.23339988 82.16576535 61.9609375 84.171875 C60.56109507 84.85135066 59.16135897 85.5310454 57.76171875 86.2109375 C55.57871996 87.25928403 53.39388829 88.30352583 51.20654297 89.34277344 C29.88785527 99.51022213 21.24465147 112.35223027 11.32592773 133.19848633 C10.36967529 135.20137379 9.39875015 137.19659845 8.42578125 139.19140625 C7.86286377 140.36775635 7.29994629 141.54410645 6.7199707 142.75610352 C4.96700721 145.6163328 4.14613625 146.57296704 1 147.5625 C-1.4375 147.6875 -1.4375 147.6875 -4 146.5625 C-9.27206372 138.95943747 -13.03138439 130.53369729 -17.0078125 122.20507812 C-24.25317244 107.37796653 -32.47512689 98.96609054 -47.125 91.625 C-49.17337033 90.57589806 -51.22154852 89.52642089 -53.26953125 88.4765625 C-54.74413818 87.72681152 -54.74413818 87.72681152 -56.24853516 86.96191406 C-59.78266702 85.16443014 -63.30378531 83.34669194 -66.8125 81.5 C-67.78832031 80.99339844 -68.76414062 80.48679687 -69.76953125 79.96484375 C-72 78.5625 -72 78.5625 -74 75.5625 C-74.1484375 72.671875 -74.1484375 72.671875 -73 69.5625 C-70.44610082 67.50727234 -67.57999368 66.20383362 -64.625 64.8125 C-62.8930889 63.94819767 -61.16132231 63.08360574 -59.4296875 62.21875 C-58.53475586 61.78175781 -57.63982422 61.34476562 -56.71777344 60.89453125 C-52.36376869 58.76055264 -48.05471154 56.54381389 -43.75 54.3125 C-42.97736816 53.92481445 -42.20473633 53.53712891 -41.40869141 53.13769531 C-26.06883215 45.22834199 -20.07464396 31.15956147 -12.89868164 16.22290039 C-12.00829947 14.37566116 -11.10810195 12.5334495 -10.20703125 10.69140625 C-9.6860083 9.60931885 -9.16498535 8.52723145 -8.62817383 7.41235352 C-6.34733416 3.42011458 -4.62097798 0.86643337 0 0 Z " fill="#4653D9" transform="translate(86,352.4375)"/>
</svg>
