<?xml version="1.0" encoding="UTF-8"?>
<svg version="1.1" xmlns="http://www.w3.org/2000/svg" width="512" height="512">
<path d="M0 0 C7.80859844 5.74616322 13.18892045 11.93248535 17.4375 20.625 C17.91888428 21.57761719 18.40026855 22.53023437 18.89624023 23.51171875 C20.34583958 26.38939634 21.77960571 29.27452733 23.21057129 32.16149902 C24.78480353 35.32456882 26.37629041 38.47889254 27.9664917 41.63395691 C35.92286414 57.42014376 43.87638637 73.20730402 51.4375 89.1875 C52.64712592 91.7249754 53.85932425 94.26117561 55.07470703 96.79589844 C55.89223076 98.50295048 56.70538819 100.21209763 57.51513672 101.92285156 C62.79941595 114.44507215 62.79941595 114.44507215 72.44392395 123.260849 C75.80883794 124.44699221 79.17524504 125.09064365 82.68237305 125.67407227 C83.42052341 125.80037049 84.15867376 125.92666872 84.91919231 126.05679417 C93.68187516 127.53079319 102.47764722 128.78562628 111.27424049 130.03767204 C114.35009999 130.47633401 117.42521891 130.91988552 120.50016785 131.36488342 C129.2290931 132.62805597 137.95829906 133.88903041 146.69018555 135.1315918 C152.06691554 135.89707065 157.44198024 136.67342887 162.81613731 137.4567585 C164.84592216 137.75056176 166.87628374 138.04041158 168.9072361 138.32603264 C187.3473151 140.92215358 202.9213396 143.92209128 215.49609375 158.859375 C223.99502615 170.44366594 225.53604181 183.2964464 224.25 197.25 C221.83023443 208.85387581 213.8985221 219.79480238 204.8125 227.25 C199.20059683 229.44001099 194.67498099 228.49495455 189.25 226.25 C188.74662109 226.75861572 188.24324219 227.26723145 187.72460938 227.79125977 C185.40248022 230.13440728 183.0762723 232.47346602 180.75 234.8125 C179.95851563 235.61236328 179.16703125 236.41222656 178.3515625 237.23632812 C172.93188585 242.67821656 167.33366494 247.7985975 161.46972656 252.75463867 C154.39774089 258.28853484 154.39774089 258.28853484 151.03515625 266 C151.60905146 268.55556454 151.60905146 268.55556454 152.68359375 270.80078125 C153.3687746 273.76359777 152.84595515 275.57712563 151.53540039 278.29370117 C148.16586343 283.42192523 143.21459504 287.4089644 138.765625 291.578125 C132.87536852 297.23739103 129.17976971 301.6216988 128.95898438 310.08178711 C129.04084946 319.00365571 130.82137802 327.70343369 132.39833069 336.45761299 C132.9801524 339.69229886 133.54794803 342.92917967 134.11218262 346.16697693 C135.7176546 355.36517524 137.34785431 364.55893611 138.98681641 373.7512207 C139.99250123 379.39727219 140.98217682 385.04595724 141.96290588 390.69639397 C142.33626746 392.82813577 142.71567135 394.95882981 143.10166931 397.08831978 C150.21737965 436.35261524 150.21737965 436.35261524 139.0625 453.5 C131.32919137 463.7507474 121.76361104 470.26870082 109.25 473.25 C106.34804537 473.56269873 103.47961103 473.61995746 100.5625 473.625 C99.83611328 473.64949219 99.10972656 473.67398437 98.36132812 473.69921875 C85.51370651 473.76619158 74.22952372 466.95377907 63.1875 461.125 C61.70587236 460.35098338 60.22385348 459.57771522 58.74145508 458.80517578 C55.18287875 456.94823994 51.62942956 455.08176028 48.07788086 453.21142578 C45.67482299 451.94746934 43.26736953 450.6920213 40.859375 449.4375 C33.44593267 445.56626527 26.07339701 441.6209279 18.70939636 437.65652466 C13.31325081 434.75247063 7.90925919 431.86337921 2.50048828 428.98291016 C0.4654924 427.89800699 -1.56768845 426.80968465 -3.59814453 425.71630859 C-6.01523511 424.41878925 -8.4424283 423.14319163 -10.875 421.875 C-11.54152588 421.51204834 -12.20805176 421.14909668 -12.89477539 420.77514648 C-19.4543324 417.41594137 -26.21706392 416.1937737 -33.35546875 418.421875 C-37.76022339 420.1294281 -41.91847253 422.24159269 -46.0625 424.5 C-47.267854 425.14473267 -47.267854 425.14473267 -48.49755859 425.80249023 C-51.25227668 427.27784524 -54.00130496 428.76345612 -56.75 430.25 C-61.12313284 432.60764676 -65.49845831 434.96118756 -69.875 437.3125 C-70.45435303 437.62410065 -71.03370605 437.93570129 -71.63061523 438.25674438 C-83.05601673 444.39764269 -94.57231208 450.35594968 -106.11962891 456.26391602 C-107.43008451 456.93491899 -108.74046964 457.60605963 -110.05078125 458.27734375 C-111.00275139 458.76476799 -111.00275139 458.76476799 -111.97395325 459.26203918 C-117.2820375 461.98908138 -122.54771376 464.79271957 -127.79219055 467.64012146 C-139.31068634 473.85118582 -151.37812908 475.01907226 -164.2265625 472.59375 C-171.31470357 470.46913924 -177.04293587 466.90314637 -182.75 462.25 C-183.38679688 461.74984375 -184.02359375 461.2496875 -184.6796875 460.734375 C-192.67378576 453.69956853 -197.9363565 441.77755055 -198.75 431.25 C-198.86911055 425.87866427 -198.53256059 420.96003337 -197.63598633 415.6418457 C-197.51722137 414.92648148 -197.39845642 414.21111725 -197.27609253 413.47407532 C-196.88426113 411.12355904 -196.48322858 408.77471543 -196.08203125 406.42578125 C-195.80199652 404.75800134 -195.52252268 403.09012716 -195.24357605 401.42216492 C-194.5065557 397.02485706 -193.7616471 392.62892062 -193.01513672 388.23321533 C-192.27529692 383.86790114 -191.54339742 379.50125748 -190.81054688 375.13476562 C-190.23492346 371.71084507 -189.65864333 368.28703543 -189.08203125 364.86328125 C-188.86954931 363.60129599 -188.86954931 363.60129599 -188.65277481 362.31381607 C-187.20774575 353.74074956 -185.74574853 345.17179823 -184.20849609 336.61474609 C-183.97094246 335.28129057 -183.73352692 333.94781044 -183.4962616 332.61430359 C-183.06537126 330.20427035 -182.62760226 327.79545084 -182.18110657 325.38825989 C-180.42344426 315.53079868 -178.82973839 305.93830977 -184.75 297.25 C-188.67664941 292.56918707 -193.11524475 288.3689714 -197.5 284.125 C-198.66776952 282.97377388 -199.83444505 281.82143695 -201 280.66796875 C-205.46905025 276.26828344 -209.9434311 271.92421915 -214.69042969 267.82275391 C-218.64529489 264.38773258 -222.35349726 260.7588952 -226.03125 257.03125 C-226.68903442 256.36967896 -227.34681885 255.70810791 -228.02453613 255.02648926 C-230.80066558 252.23421856 -233.57071537 249.43594584 -236.34130859 246.63818359 C-238.3816708 244.57959102 -240.42514331 242.52412097 -242.46875 240.46875 C-243.38630066 239.53875183 -243.38630066 239.53875183 -244.3223877 238.58996582 C-248.62487897 234.26355723 -253.12643524 230.22912277 -257.75 226.25 C-263.71761957 220.89521678 -268.11256614 215.41725133 -271.75 208.25 C-272.16507812 207.45335937 -272.58015625 206.65671875 -273.0078125 205.8359375 C-277.80316731 195.00447175 -277.32346946 181.73758217 -273.6875 170.625 C-268.85691721 158.96918365 -260.13971173 149.61319144 -248.59703064 144.3828125 C-237.72185508 140.05566033 -225.47421848 139.05449702 -213.96348381 137.4317627 C-210.83729341 136.99082489 -207.71220655 136.54268351 -204.58729553 136.09277344 C-196.83204727 134.97760307 -189.07519397 133.87378172 -181.31817627 132.77099609 C-174.74189467 131.83577489 -168.16637475 130.89550439 -161.59179878 129.94836426 C-158.53282636 129.50974781 -155.47287843 129.07847117 -152.41282654 128.64746094 C-134.42140911 126.95672993 -134.42140911 126.95672993 -118.75 119.25 C-113.14410061 111.71063735 -109.41922499 102.54968435 -105.40625 94.09765625 C-99.01695335 80.71789497 -92.42450686 67.4444403 -85.78417969 54.18798828 C-84.17480716 50.97502305 -82.56912799 47.76022756 -80.96443367 44.54492378 C-79.69952139 42.01145939 -78.43267989 39.47896342 -77.16527939 36.94674301 C-76.29027768 35.19770696 -75.41685211 33.44788268 -74.54348755 31.69802856 C-66.17688309 15.01353055 -59.3229785 1.84899846 -40.9765625 -5.0234375 C-27.37216746 -9.46276641 -12.06862926 -7.49935197 0 0 Z " fill="#7AACF3" transform="translate(281.75,22.75)"/>
<path d="M0 0 C7.80859844 5.74616322 13.18892045 11.93248535 17.4375 20.625 C17.91888428 21.57761719 18.40026855 22.53023437 18.89624023 23.51171875 C20.34583958 26.38939634 21.77960571 29.27452733 23.21057129 32.16149902 C24.78480353 35.32456882 26.37629041 38.47889254 27.9664917 41.63395691 C35.92286414 57.42014376 43.87638637 73.20730402 51.4375 89.1875 C52.64712592 91.7249754 53.85932425 94.26117561 55.07470703 96.79589844 C55.89223076 98.50295048 56.70538819 100.21209763 57.51513672 101.92285156 C62.79941595 114.44507215 62.79941595 114.44507215 72.44392395 123.260849 C75.80883794 124.44699221 79.17524504 125.09064365 82.68237305 125.67407227 C83.42052341 125.80037049 84.15867376 125.92666872 84.91919231 126.05679417 C93.68187516 127.53079319 102.47764722 128.78562628 111.27424049 130.03767204 C114.35009999 130.47633401 117.42521891 130.91988552 120.50016785 131.36488342 C129.2290931 132.62805597 137.95829906 133.88903041 146.69018555 135.1315918 C152.06691554 135.89707065 157.44198024 136.67342887 162.81613731 137.4567585 C164.84592216 137.75056176 166.87628374 138.04041158 168.9072361 138.32603264 C187.3473151 140.92215358 202.9213396 143.92209128 215.49609375 158.859375 C223.99502615 170.44366594 225.53604181 183.2964464 224.25 197.25 C221.83023443 208.85387581 213.8985221 219.79480238 204.8125 227.25 C200.17346611 229.06035469 196.04739022 228.96895609 191.4375 227.125 C187.84962806 224.04968119 186.48849916 220.88542281 185.8125 216.25 C186.6159582 210.74057237 190.18884523 207.2969848 193.8125 203.3125 C198.57246104 197.91923943 200.83969752 192.81296396 200.6171875 185.59375 C200.07944441 182.16134733 198.76848339 179.28696679 197.22265625 176.1953125 C196.25 174.25 196.25 174.25 195.25 171.25 C193.42643264 170.12353673 193.42643264 170.12353673 191.25 169.25 C190.57487429 168.91517357 189.89974857 168.58034714 189.20416451 168.23537445 C183.92691129 165.74917111 179.09815747 164.41861876 173.33154297 163.66601562 C172.48935211 163.54506027 171.64716125 163.42410492 170.77944946 163.29948425 C168.01861923 162.90599351 165.25559344 162.53118326 162.4921875 162.15625 C160.54214871 161.88135426 158.59229171 161.60516621 156.64260864 161.32775879 C151.51399147 160.60106247 146.38337522 159.8896622 141.2520752 159.18218994 C132.12134499 157.92024083 122.99435656 156.63116324 113.8671875 155.34375 C112.89702572 155.20698664 111.92686394 155.07022327 110.92730331 154.92931557 C89.00228562 151.83307185 89.00228562 151.83307185 78.375 150.04296875 C77.51969696 149.90383057 76.66439392 149.76469238 75.78317261 149.62133789 C63.79809035 147.50820368 53.83601779 141.84148692 46.25 132.25 C39.52801034 121.74526905 34.26437946 110.36682041 28.84320068 99.15975952 C26.32742637 93.95967337 23.79579475 88.76731175 21.265625 83.57421875 C20.75889252 82.53326553 20.25216003 81.49231232 19.73007202 80.41981506 C14.92555526 70.56030431 10.04172713 60.74145025 5.125 50.9375 C4.5712973 49.83302521 4.5712973 49.83302521 4.00640869 48.70623779 C1.95436739 44.61364105 1.95436739 44.61364105 -0.10319519 40.52381897 C-1.50292814 37.74572744 -2.88937367 34.96286979 -4.24780273 32.16430664 C-4.68294189 31.2696167 -5.11808105 30.37492676 -5.56640625 29.453125 C-5.92677979 28.70063477 -6.28715332 27.94814453 -6.65844727 27.17285156 C-9.5082363 22.15273561 -14.25230989 19.52414685 -19.62109375 17.76171875 C-26.68016037 16.06495228 -31.81000955 17.27866128 -38.29296875 20.375 C-45.05401606 25.53446377 -48.62857151 33.50682365 -52.21484375 41.0078125 C-52.72133453 42.04905777 -53.22782532 43.09030304 -53.74966431 44.1631012 C-54.83725897 46.40081579 -55.92117744 48.64032021 -57.0017395 50.88143921 C-58.70735968 54.41615709 -60.424924 57.9448253 -62.14624023 61.47192383 C-64.51558813 66.32729375 -66.88226493 71.18394587 -69.24511719 76.04248047 C-69.68404438 76.9448848 -69.68404438 76.9448848 -70.1318388 77.86551952 C-71.56475293 80.81177919 -72.99693562 83.75839211 -74.42834473 86.7053833 C-77.55175584 93.13353412 -80.68993682 99.55400928 -83.85134888 105.96356201 C-84.81547712 107.9258899 -85.77352312 109.89121936 -86.72506714 111.85968018 C-98.39851853 135.99979596 -98.39851853 135.99979596 -110.25 143.1875 C-111.0853125 143.71214844 -111.920625 144.23679688 -112.78125 144.77734375 C-120.111486 148.41352661 -127.42337585 149.85126797 -135.5 150.8125 C-137.32828569 151.04169054 -139.15640972 151.27217411 -140.984375 151.50390625 C-141.87342026 151.61576263 -142.76246552 151.72761902 -143.67845154 151.84286499 C-146.63644412 152.23494812 -149.58022546 152.68020176 -152.52758789 153.14501953 C-159.91097811 154.2890943 -167.30826361 155.31838493 -174.70853233 156.34578896 C-179.68571075 157.04006125 -184.660739 157.74961031 -189.63594341 158.45786762 C-193.97818927 159.07519593 -198.32116094 159.6860155 -202.66625977 160.28295898 C-206.91103971 160.86644305 -211.15306296 161.46718461 -215.39377785 162.07948875 C-216.99509688 162.30764685 -218.59729286 162.52974465 -220.20035362 162.74532509 C-234.89641374 164.62704514 -234.89641374 164.62704514 -247.00390625 172.6015625 C-247.43574219 173.35179687 -247.86757812 174.10203125 -248.3125 174.875 C-248.76753906 175.63039062 -249.22257812 176.38578125 -249.69140625 177.1640625 C-252.68166637 183.05630937 -252.64777231 189.3660348 -250.65234375 195.609375 C-247.10163506 204.09979 -239.49252485 210.16471037 -233 216.4375 C-231.63929262 217.7766423 -230.27990609 219.11712811 -228.921875 220.45898438 C-223.96446977 225.33409671 -219.01750509 230.182341 -213.75488281 234.72973633 C-209.81700525 238.1457576 -206.1287496 241.75909878 -202.46875 245.46875 C-201.81096558 246.13032104 -201.15318115 246.79189209 -200.47546387 247.47351074 C-197.69933442 250.26578144 -194.92928463 253.06405416 -192.15869141 255.86181641 C-190.1183292 257.92040898 -188.07485669 259.97587903 -186.03125 262.03125 C-185.41954956 262.65124878 -184.80784912 263.27124756 -184.1776123 263.91003418 C-180.45568117 267.65265533 -176.61306146 271.18548892 -172.59802246 274.61242676 C-163.33321243 282.82217817 -156.42416556 294.25782107 -155.484375 306.79296875 C-155.52149695 315.4516635 -156.17262674 323.63463525 -158.18310547 332.06640625 C-159.76093202 338.78753752 -160.78288039 345.58201461 -161.80914307 352.40441895 C-163.45208492 363.3046635 -165.21960192 374.16047966 -167.36621094 384.97460938 C-168.69876854 391.76002537 -169.75891322 398.57025558 -170.71142578 405.41894531 C-171.37152626 410.0839177 -172.22985573 414.63969621 -173.33032227 419.22192383 C-174.74107096 426.03931148 -173.89120775 433.03629843 -170.75 439.25 C-167.14971705 443.40259909 -163.34925138 447.37250538 -157.75 448.25 C-156.83089844 448.39824219 -155.91179687 448.54648437 -154.96484375 448.69921875 C-143.85951284 449.50663852 -136.73118215 445.17758084 -127.37744141 439.74707031 C-122.82380811 437.15248944 -118.156844 434.77766839 -113.5 432.375 C-111.54643153 431.35762192 -109.59330939 430.33938639 -107.640625 429.3203125 C-106.66673828 428.81274414 -105.69285156 428.30517578 -104.68945312 427.78222656 C-100.83058756 425.77074481 -96.97248464 423.75780337 -93.11450195 421.74462891 C-91.20690316 420.74928928 -89.29918854 419.7541716 -87.39135742 418.75927734 C-82.50998845 416.21352546 -77.63043493 413.66438792 -72.75390625 411.109375 C-64.02918499 406.5410813 -55.30210496 401.98037959 -46.5 397.5625 C-45.5255896 397.07185059 -45.5255896 397.07185059 -44.53149414 396.57128906 C-38.39616806 393.51404466 -33.85784686 393.03908765 -27.125 393 C-25.82755859 392.9690625 -25.82755859 392.9690625 -24.50390625 392.9375 C-15.5553896 392.88383573 -8.66515705 395.57908267 -0.75 399.625 C-0.0897583 399.96096191 0.5704834 400.29692383 1.25073242 400.64306641 C3.58824074 401.8369678 5.91943838 403.04259518 8.25 404.25 C9.19568848 404.73855469 10.14137695 405.22710937 11.11572266 405.73046875 C22.48388821 411.6077396 33.82406641 417.53813497 45.14331055 423.5090332 C49.40308129 425.75519304 53.66746723 427.99215114 57.9375 430.21875 C58.91380371 430.72817139 59.89010742 431.23759277 60.89599609 431.76245117 C62.87083129 432.79000638 64.84770402 433.81365578 66.82666016 434.83325195 C71.26902647 437.12923501 75.66153965 439.45659011 79.9609375 442.01171875 C89.14368772 447.4007241 96.3297332 450.35810906 107.25 448.25 C113.76198598 445.78573783 117.28075446 441.27419851 121 435.5625 C123.63746983 428.57320494 122.26104175 421.7655268 120.94140625 414.57421875 C120.80846664 413.83545502 120.67552704 413.09669128 120.53855896 412.33554077 C120.11247587 409.97305598 119.68172676 407.61145948 119.25 405.25 C118.97063657 403.71607657 118.69133926 402.1821411 118.41210938 400.64819336 C117.98686237 398.31442795 117.56145925 395.98069123 117.13578796 393.64700317 C114.34185865 378.3201543 111.613146 363.00987931 109.49243164 347.57275391 C108.71755614 342.00251638 107.67314377 336.68905958 106.25 331.25 C103.6688909 317.72307636 101.92455242 303.92000528 108.25 291.25 C108.87455078 289.98349609 108.87455078 289.98349609 109.51171875 288.69140625 C115.64844012 277.85147586 126.35978411 266.4841408 137.25 260.25 C141.68186643 259.61687622 143.64817919 259.90934671 147.5625 262.125 C152.11636208 265.72572816 152.11636208 265.72572816 153.0625 269.4375 C153.3318273 274.91382174 151.93390318 278.34305752 148.36254883 282.38745117 C145.22825713 285.52174287 141.99967975 288.54746992 138.765625 291.578125 C132.87536852 297.23739103 129.17976971 301.6216988 128.95898438 310.08178711 C129.04084946 319.00365571 130.82137802 327.70343369 132.39833069 336.45761299 C132.9801524 339.69229886 133.54794803 342.92917967 134.11218262 346.16697693 C135.7176546 355.36517524 137.34785431 364.55893611 138.98681641 373.7512207 C139.99250123 379.39727219 140.98217682 385.04595724 141.96290588 390.69639397 C142.33626746 392.82813577 142.71567135 394.95882981 143.10166931 397.08831978 C150.21737965 436.35261524 150.21737965 436.35261524 139.0625 453.5 C131.32919137 463.7507474 121.76361104 470.26870082 109.25 473.25 C106.34804537 473.56269873 103.47961103 473.61995746 100.5625 473.625 C99.83611328 473.64949219 99.10972656 473.67398437 98.36132812 473.69921875 C85.51370651 473.76619158 74.22952372 466.95377907 63.1875 461.125 C61.70587236 460.35098338 60.22385348 459.57771522 58.74145508 458.80517578 C55.18287875 456.94823994 51.62942956 455.08176028 48.07788086 453.21142578 C45.67482299 451.94746934 43.26736953 450.6920213 40.859375 449.4375 C33.44593267 445.56626527 26.07339701 441.6209279 18.70939636 437.65652466 C13.31325081 434.75247063 7.90925919 431.86337921 2.50048828 428.98291016 C0.4654924 427.89800699 -1.56768845 426.80968465 -3.59814453 425.71630859 C-6.01523511 424.41878925 -8.4424283 423.14319163 -10.875 421.875 C-11.54152588 421.51204834 -12.20805176 421.14909668 -12.89477539 420.77514648 C-19.4543324 417.41594137 -26.21706392 416.1937737 -33.35546875 418.421875 C-37.76022339 420.1294281 -41.91847253 422.24159269 -46.0625 424.5 C-47.267854 425.14473267 -47.267854 425.14473267 -48.49755859 425.80249023 C-51.25227668 427.27784524 -54.00130496 428.76345612 -56.75 430.25 C-61.12313284 432.60764676 -65.49845831 434.96118756 -69.875 437.3125 C-70.45435303 437.62410065 -71.03370605 437.93570129 -71.63061523 438.25674438 C-83.05601673 444.39764269 -94.57231208 450.35594968 -106.11962891 456.26391602 C-107.43008451 456.93491899 -108.74046964 457.60605963 -110.05078125 458.27734375 C-111.00275139 458.76476799 -111.00275139 458.76476799 -111.97395325 459.26203918 C-117.2820375 461.98908138 -122.54771376 464.79271957 -127.79219055 467.64012146 C-139.31068634 473.85118582 -151.37812908 475.01907226 -164.2265625 472.59375 C-171.31470357 470.46913924 -177.04293587 466.90314637 -182.75 462.25 C-183.38679688 461.74984375 -184.02359375 461.2496875 -184.6796875 460.734375 C-192.67378576 453.69956853 -197.9363565 441.77755055 -198.75 431.25 C-198.86911055 425.87866427 -198.53256059 420.96003337 -197.63598633 415.6418457 C-197.51722137 414.92648148 -197.39845642 414.21111725 -197.27609253 413.47407532 C-196.88426113 411.12355904 -196.48322858 408.77471543 -196.08203125 406.42578125 C-195.80199652 404.75800134 -195.52252268 403.09012716 -195.24357605 401.42216492 C-194.5065557 397.02485706 -193.7616471 392.62892062 -193.01513672 388.23321533 C-192.27529692 383.86790114 -191.54339742 379.50125748 -190.81054688 375.13476562 C-190.23492346 371.71084507 -189.65864333 368.28703543 -189.08203125 364.86328125 C-188.86954931 363.60129599 -188.86954931 363.60129599 -188.65277481 362.31381607 C-187.20774575 353.74074956 -185.74574853 345.17179823 -184.20849609 336.61474609 C-183.97094246 335.28129057 -183.73352692 333.94781044 -183.4962616 332.61430359 C-183.06537126 330.20427035 -182.62760226 327.79545084 -182.18110657 325.38825989 C-180.42344426 315.53079868 -178.82973839 305.93830977 -184.75 297.25 C-188.67664941 292.56918707 -193.11524475 288.3689714 -197.5 284.125 C-198.66776952 282.97377388 -199.83444505 281.82143695 -201 280.66796875 C-205.46905025 276.26828344 -209.9434311 271.92421915 -214.69042969 267.82275391 C-218.64529489 264.38773258 -222.35349726 260.7588952 -226.03125 257.03125 C-226.68903442 256.36967896 -227.34681885 255.70810791 -228.02453613 255.02648926 C-230.80066558 252.23421856 -233.57071537 249.43594584 -236.34130859 246.63818359 C-238.3816708 244.57959102 -240.42514331 242.52412097 -242.46875 240.46875 C-243.38630066 239.53875183 -243.38630066 239.53875183 -244.3223877 238.58996582 C-248.62487897 234.26355723 -253.12643524 230.22912277 -257.75 226.25 C-263.71761957 220.89521678 -268.11256614 215.41725133 -271.75 208.25 C-272.16507812 207.45335937 -272.58015625 206.65671875 -273.0078125 205.8359375 C-277.80316731 195.00447175 -277.32346946 181.73758217 -273.6875 170.625 C-268.85691721 158.96918365 -260.13971173 149.61319144 -248.59703064 144.3828125 C-237.72185508 140.05566033 -225.47421848 139.05449702 -213.96348381 137.4317627 C-210.83729341 136.99082489 -207.71220655 136.54268351 -204.58729553 136.09277344 C-196.83204727 134.97760307 -189.07519397 133.87378172 -181.31817627 132.77099609 C-174.74189467 131.83577489 -168.16637475 130.89550439 -161.59179878 129.94836426 C-158.53282636 129.50974781 -155.47287843 129.07847117 -152.41282654 128.64746094 C-134.42140911 126.95672993 -134.42140911 126.95672993 -118.75 119.25 C-113.14410061 111.71063735 -109.41922499 102.54968435 -105.40625 94.09765625 C-99.01695335 80.71789497 -92.42450686 67.4444403 -85.78417969 54.18798828 C-84.17480716 50.97502305 -82.56912799 47.76022756 -80.96443367 44.54492378 C-79.69952139 42.01145939 -78.43267989 39.47896342 -77.16527939 36.94674301 C-76.29027768 35.19770696 -75.41685211 33.44788268 -74.54348755 31.69802856 C-66.17688309 15.01353055 -59.3229785 1.84899846 -40.9765625 -5.0234375 C-27.37216746 -9.46276641 -12.06862926 -7.49935197 0 0 Z " fill="#424243" transform="translate(281.75,22.75)"/>
</svg>
